<?xml version="1.0" standalone="no"?>
<!DOCTYPE svg PUBLIC "-//W3C//DTD SVG 20010904//EN"
 "http://www.w3.org/TR/2001/REC-SVG-20010904/DTD/svg10.dtd">
<svg version="1.0" xmlns="http://www.w3.org/2000/svg"
 width="500.000000pt" height="221.000000pt" viewBox="0 0 500.000000 221.000000"
 preserveAspectRatio="xMidYMid meet">

<g transform="translate(0.000000,221.000000) scale(0.100000,-0.100000)"
fill="#000000" stroke="none">
<path d="M1976 1639 c-63 -15 -155 -69 -198 -118 -40 -45 -90 -139 -104 -193
l-6 -28 59 0 60 0 12 55 c28 125 113 237 199 263 138 42 304 -37 345 -164 9
-27 19 -66 23 -86 4 -23 12 -38 20 -38 11 0 14 29 14 150 0 83 -4 150 -8 150
-5 0 -14 -18 -21 -40 -6 -22 -17 -40 -22 -40 -6 0 -37 16 -69 36 -98 60 -198
78 -304 53z"/>
<path d="M3980 1640 c-64 -11 -93 -24 -133 -60 -46 -40 -72 -113 -64 -186 9
-89 15 -94 109 -94 l82 0 -36 38 c-49 51 -58 72 -58 138 0 53 2 59 43 99 31
31 53 44 85 49 53 8 116 -8 159 -40 37 -28 79 -110 89 -171 4 -27 12 -43 20
-43 11 0 14 27 14 135 0 126 -9 169 -24 110 -10 -39 -31 -40 -99 -7 -70 34
-121 43 -187 32z"/>
<path d="M620 1495 c0 -113 2 -135 15 -135 10 0 15 10 15 30 0 63 22 133 54
166 24 27 43 36 89 45 32 5 74 9 95 7 l37 -3 3 -152 3 -153 59 0 60 0 0 156 0
157 74 -6 c133 -10 172 -45 194 -176 11 -61 18 -79 26 -70 2 2 6 64 8 137 l4
132 -368 0 -368 0 0 -135z"/>
<path d="M2733 1495 c1 -94 6 -135 14 -135 6 0 14 25 18 60 9 75 41 139 81
162 19 11 63 21 113 25 l81 6 0 -157 0 -156 60 0 60 0 0 156 0 157 80 -6 c133
-10 170 -44 191 -174 6 -40 16 -73 20 -73 5 0 9 37 9 83 0 45 3 106 6 135 l7
52 -371 0 -371 0 2 -135z"/>
<path d="M689 1152 c-2 -44 0 -72 6 -72 6 0 9 22 7 52 -5 90 -8 96 -13 20z"/>
<path d="M940 1150 c0 -38 3 -70 8 -70 4 0 7 32 7 70 0 39 -3 70 -7 70 -5 0
-8 -31 -8 -70z"/>
<path d="M1020 1150 c0 -40 4 -70 10 -70 6 0 10 30 10 70 0 40 -4 70 -10 70
-6 0 -10 -30 -10 -70z"/>
<path d="M1253 1150 c0 -41 2 -58 4 -37 2 20 2 54 0 75 -2 20 -4 3 -4 -38z"/>
<path d="M1606 1207 c3 -10 9 -15 12 -12 3 3 0 11 -7 18 -10 9 -11 8 -5 -6z"/>
<path d="M1820 1150 c0 -40 4 -70 10 -70 6 0 10 30 10 70 0 40 -4 70 -10 70
-6 0 -10 -30 -10 -70z"/>
<path d="M2350 1150 c0 -40 4 -70 10 -70 6 0 10 30 10 70 0 40 -4 70 -10 70
-6 0 -10 -30 -10 -70z"/>
<path d="M2600 1150 c0 -40 4 -70 10 -70 6 0 10 30 10 70 0 40 -4 70 -10 70
-6 0 -10 -30 -10 -70z"/>
<path d="M2855 1150 c0 -38 3 -70 8 -70 4 0 7 32 7 70 0 39 -3 70 -7 70 -5 0
-8 -31 -8 -70z"/>
<path d="M2940 1150 c0 -38 3 -70 8 -70 4 0 7 32 7 70 0 39 -3 70 -7 70 -5 0
-8 -31 -8 -70z"/>
<path d="M3160 1168 c0 -29 5 -60 10 -68 7 -11 10 5 10 53 0 38 -4 67 -10 67
-5 0 -10 -24 -10 -52z"/>
<path d="M3830 1210 c0 -5 5 -10 11 -10 5 0 7 5 4 10 -3 6 -8 10 -11 10 -2 0
-4 -4 -4 -10z"/>
<path d="M4300 1150 c0 -40 4 -70 10 -70 6 0 10 30 10 70 0 40 -4 70 -10 70
-6 0 -10 -30 -10 -70z"/>
<path d="M1519 1189 c-11 -21 -5 -84 9 -93 4 -2 7 22 7 55 0 32 -1 59 -2 59
-1 0 -7 -9 -14 -21z"/>
<path d="M2046 1194 c-8 -22 -7 -82 2 -87 4 -3 7 19 8 49 0 59 -1 62 -10 38z"/>
<path d="M2135 1148 c0 -58 0 -58 13 -28 7 17 9 42 6 55 -11 45 -19 34 -19
-27z"/>
<path d="M3456 1194 c-8 -22 -7 -82 2 -87 4 -3 7 19 8 49 0 59 -1 62 -10 38z"/>
<path d="M3545 1148 c0 -58 0 -58 13 -28 7 17 9 42 6 55 -11 45 -19 34 -19
-27z"/>
<path d="M4031 1194 c-1 -14 12 -31 35 -49 24 -19 33 -32 29 -44 -5 -12 -3
-13 6 -4 17 16 4 41 -30 61 -17 9 -32 26 -34 37 -4 19 -4 19 -6 -1z"/>
<path d="M3757 1187 c-11 -28 -8 -61 6 -81 11 -15 12 -11 9 26 -5 70 -7 75
-15 55z"/>
<path d="M1600 1115 c0 -14 5 -25 10 -25 6 0 10 11 10 25 0 14 -4 25 -10 25
-5 0 -10 -11 -10 -25z"/>
<path d="M930 883 c0 -118 -25 -163 -90 -163 -23 0 -50 -10 -50 -19 0 -3 88
-6 195 -6 107 0 195 3 195 6 0 10 -28 19 -56 19 -14 0 -36 11 -49 25 -23 22
-25 32 -25 115 l0 90 -60 0 -60 0 0 -67z"/>
<path d="M1680 944 c0 -3 14 -33 31 -65 60 -113 164 -181 299 -198 115 -15
210 8 288 70 14 10 31 19 38 19 16 0 34 -31 34 -59 0 -12 7 -21 15 -21 13 0
15 21 15 130 l0 130 -60 0 -60 0 0 -86 c0 -83 -1 -87 -31 -115 -42 -39 -92
-52 -181 -48 -130 7 -216 72 -254 194 l-18 55 -58 0 c-32 0 -58 -3 -58 -6z"/>
<path d="M3040 870 c0 -118 -16 -143 -99 -152 -14 -2 -26 -7 -28 -13 -2 -6 65
-10 187 -10 105 0 190 3 190 6 0 10 -28 19 -56 19 -14 0 -36 11 -49 25 -23 22
-25 32 -25 115 l0 90 -60 0 -60 0 0 -80z"/>
<path d="M3780 815 c0 -126 9 -169 24 -110 10 38 29 40 89 11 87 -43 211 -51
292 -20 85 33 143 108 152 199 l6 55 -66 0 -66 0 10 -32 c12 -44 1 -112 -25
-150 -31 -46 -80 -68 -150 -68 -116 0 -186 61 -223 193 -9 33 -22 57 -30 57
-10 0 -13 -29 -13 -135z"/>
</g>
</svg>
